<mxfile host="app.diagrams.net" modified="2023-11-09T13:43:50.343Z" agent="Mozilla/5.0 (Windows NT 10.0; Win64; x64) AppleWebKit/537.36 (KHTML, like Gecko) Chrome/119.0.0.0 Safari/537.36" etag="Hnk9rppVujDLrivlwQdK" version="22.1.0" type="onedrive">
  <diagram name="Trang-1" id="Z_H8fih03RXwh4omMz2k">
    <mxGraphModel dx="1468" dy="748" grid="1" gridSize="10" guides="1" tooltips="1" connect="1" arrows="1" fold="1" page="1" pageScale="1" pageWidth="827" pageHeight="1169" math="0" shadow="0">
      <root>
        <mxCell id="0" />
        <mxCell id="1" parent="0" />
        <mxCell id="AXNzD9WwO0mVub66-RKH-2" style="edgeStyle=orthogonalEdgeStyle;rounded=0;orthogonalLoop=1;jettySize=auto;html=1;" parent="1" source="AXNzD9WwO0mVub66-RKH-1" edge="1">
          <mxGeometry relative="1" as="geometry">
            <mxPoint x="390" y="130" as="targetPoint" />
          </mxGeometry>
        </mxCell>
        <mxCell id="AXNzD9WwO0mVub66-RKH-1" value="Start" style="ellipse;whiteSpace=wrap;html=1;" parent="1" vertex="1">
          <mxGeometry x="330" y="10" width="120" height="80" as="geometry" />
        </mxCell>
        <mxCell id="AXNzD9WwO0mVub66-RKH-4" style="edgeStyle=orthogonalEdgeStyle;rounded=0;orthogonalLoop=1;jettySize=auto;html=1;" parent="1" source="AXNzD9WwO0mVub66-RKH-3" edge="1">
          <mxGeometry relative="1" as="geometry">
            <mxPoint x="395" y="250" as="targetPoint" />
          </mxGeometry>
        </mxCell>
        <mxCell id="AXNzD9WwO0mVub66-RKH-3" value="number" style="shape=parallelogram;perimeter=parallelogramPerimeter;whiteSpace=wrap;html=1;fixedSize=1;" parent="1" vertex="1">
          <mxGeometry x="320" y="130" width="150" height="60" as="geometry" />
        </mxCell>
        <mxCell id="AXNzD9WwO0mVub66-RKH-16" style="edgeStyle=orthogonalEdgeStyle;rounded=0;orthogonalLoop=1;jettySize=auto;html=1;" parent="1" source="AXNzD9WwO0mVub66-RKH-7" edge="1">
          <mxGeometry relative="1" as="geometry">
            <mxPoint x="395" y="490" as="targetPoint" />
          </mxGeometry>
        </mxCell>
        <mxCell id="AXNzD9WwO0mVub66-RKH-25" value="True" style="edgeLabel;html=1;align=center;verticalAlign=middle;resizable=0;points=[];" parent="AXNzD9WwO0mVub66-RKH-16" vertex="1" connectable="0">
          <mxGeometry x="-0.3854" relative="1" as="geometry">
            <mxPoint as="offset" />
          </mxGeometry>
        </mxCell>
        <mxCell id="AXNzD9WwO0mVub66-RKH-23" style="edgeStyle=orthogonalEdgeStyle;rounded=0;orthogonalLoop=1;jettySize=auto;html=1;" parent="1" source="AXNzD9WwO0mVub66-RKH-7" edge="1">
          <mxGeometry relative="1" as="geometry">
            <mxPoint x="820" y="500" as="targetPoint" />
          </mxGeometry>
        </mxCell>
        <mxCell id="AXNzD9WwO0mVub66-RKH-24" value="False" style="edgeLabel;html=1;align=center;verticalAlign=middle;resizable=0;points=[];" parent="AXNzD9WwO0mVub66-RKH-23" vertex="1" connectable="0">
          <mxGeometry x="0.2983" y="-1" relative="1" as="geometry">
            <mxPoint as="offset" />
          </mxGeometry>
        </mxCell>
        <mxCell id="AXNzD9WwO0mVub66-RKH-7" value="&#xa;&lt;span style=&quot;color: rgb(0, 0, 0); font-family: Helvetica; font-size: 12px; font-style: normal; font-variant-ligatures: normal; font-variant-caps: normal; font-weight: 400; letter-spacing: normal; orphans: 2; text-align: center; text-indent: 0px; text-transform: none; widows: 2; word-spacing: 0px; -webkit-text-stroke-width: 0px; background-color: rgb(251, 251, 251); text-decoration-thickness: initial; text-decoration-style: initial; text-decoration-color: initial; float: none; display: inline !important;&quot;&gt;number%3 = 0 và number%5 = 0&lt;/span&gt;&#xa;&#xa;" style="rhombus;whiteSpace=wrap;html=1;" parent="1" vertex="1">
          <mxGeometry x="270" y="250" width="250" height="170" as="geometry" />
        </mxCell>
        <mxCell id="AXNzD9WwO0mVub66-RKH-17" style="edgeStyle=orthogonalEdgeStyle;rounded=0;orthogonalLoop=1;jettySize=auto;html=1;" parent="1" source="AXNzD9WwO0mVub66-RKH-12" edge="1">
          <mxGeometry relative="1" as="geometry">
            <mxPoint x="400" y="680" as="targetPoint" />
          </mxGeometry>
        </mxCell>
        <mxCell id="AXNzD9WwO0mVub66-RKH-12" value="number chia hết cho cả 3 và 5" style="shape=parallelogram;perimeter=parallelogramPerimeter;whiteSpace=wrap;html=1;fixedSize=1;" parent="1" vertex="1">
          <mxGeometry x="270" y="490" width="260" height="90" as="geometry" />
        </mxCell>
        <mxCell id="AXNzD9WwO0mVub66-RKH-18" value="End" style="ellipse;whiteSpace=wrap;html=1;" parent="1" vertex="1">
          <mxGeometry x="340" y="680" width="120" height="80" as="geometry" />
        </mxCell>
        <mxCell id="AXNzD9WwO0mVub66-RKH-28" style="edgeStyle=orthogonalEdgeStyle;rounded=0;orthogonalLoop=1;jettySize=auto;html=1;entryX=1;entryY=0.5;entryDx=0;entryDy=0;" parent="1" source="AXNzD9WwO0mVub66-RKH-22" target="AXNzD9WwO0mVub66-RKH-18" edge="1">
          <mxGeometry relative="1" as="geometry">
            <mxPoint x="820" y="750" as="targetPoint" />
            <Array as="points">
              <mxPoint x="820" y="720" />
            </Array>
          </mxGeometry>
        </mxCell>
        <mxCell id="AXNzD9WwO0mVub66-RKH-22" value="number không chia hết cho cả 3 và 5" style="shape=parallelogram;perimeter=parallelogramPerimeter;whiteSpace=wrap;html=1;fixedSize=1;" parent="1" vertex="1">
          <mxGeometry x="690" y="500" width="260" height="80" as="geometry" />
        </mxCell>
      </root>
    </mxGraphModel>
  </diagram>
</mxfile>
